<?xml version="1.0"?>
<svg width="134" height="146" xmlns="http://www.w3.org/2000/svg">

 <g>
  <title>background</title>
  <rect fill="none" id="canvas_background" height="148" width="136" y="-1" x="-1"/>
 </g>
 <g>
  <title>Layer 1</title>
  <g id="svg_129">
   <circle id="svg_130" r="4.553" cy="81.188" cx="73.104" fill="#005A9B"/>
   <circle id="svg_131" r="4.097" cy="70.91" cx="79.271" fill="#8CB5D2"/>
   <circle id="svg_132" r="3.687" cy="63.641" cx="87.454" fill="#8CB5D2"/>
   <circle id="svg_133" r="3.318" cy="56.808" cx="95.244" fill="#8CB5D2"/>
   <circle id="svg_134" r="2.986" cy="48.312" cx="98.369" fill="#8CB5D2"/>
   <circle id="svg_135" r="2.688" cy="39.892" cx="96.637" fill="#8CB5D2"/>
   <circle id="svg_136" r="2.42" cy="31.875" cx="96.299" fill="#8CB5D2"/>
   <circle id="svg_137" r="2.178" cy="25.207" cx="99.166" fill="#8CB5D2"/>
   <circle id="svg_138" r="1.96" cy="20.702" cx="104.21" fill="#8CB5D2"/>
   <circle id="svg_139" r="1.763" cy="15.623" cx="107.399" fill="#8CB5D2"/>
   <circle id="svg_140" r="1.588" cy="10.112" cx="106.064" fill="#8CB5D2"/>
   <circle id="svg_141" r="1.286" cy="5.664" cx="103.673" fill="#8CB5D2"/>
   <circle id="svg_142" r="4.552" cy="81.188" cx="58.013" fill="#005A9B"/>
   <circle id="svg_143" r="4.553" cy="92.553" cx="65.369" fill="#005A9B"/>
   <circle id="svg_144" r="2.518" cy="38.68" cx="104.911" fill="#8CB5D2"/>
   <circle id="svg_145" r="2.265" cy="35.349" cx="112.256" fill="#8CB5D2"/>
   <circle id="svg_146" r="2.04" cy="28.838" cx="115.525" fill="#8CB5D2"/>
   <circle id="svg_147" r="1.836" cy="22.49" cx="116.875" fill="#8CB5D2"/>
   <circle id="svg_148" r="1.763" cy="33.938" cx="118.743" fill="#8CB5D2"/>
   <path id="svg_149" d="m123.927979,32.049004c-0.810974,0.337997 -1.73999,-0.046005 -2.078003,-0.854004c-0.338013,-0.809998 0.046997,-1.739998 0.85498,-2.075996c0.807007,-0.338005 1.738037,0.044998 2.07605,0.853996c0.335999,0.806999 -0.044983,1.737999 -0.853027,2.076004z" fill="#8CB5D2"/>
   <circle id="svg_150" r="1.428" cy="26.665" cx="126.5" fill="#8CB5D2"/>
   <circle id="svg_151" r="1.286" cy="8.192" cx="85.981" fill="#8CB5D2"/>
   <circle id="svg_152" r="1.429" cy="16.587" cx="116.647" fill="#8CB5D2"/>
   <circle id="svg_153" r="2.266" cy="57.22" cx="103.647" fill="#8CB5D2"/>
   <circle id="svg_154" r="2.04" cy="55.188" cx="110.644" fill="#8CB5D2"/>
   <path id="svg_155" d="m116.296997,53.693001c-1.012024,0.045998 -1.870972,-0.737 -1.917969,-1.751999c-0.045044,-1.014 0.737976,-1.872002 1.753967,-1.917c1.01001,-0.047005 1.869019,0.737 1.916016,1.750999c0.044983,1.014 -0.738037,1.873001 -1.752014,1.917999z" fill="#8CB5D2"/>
   <circle id="svg_156" r="1.429" cy="47.676" cx="120.386" fill="#8CB5D2"/>
   <circle id="svg_157" r="2.274" cy="26.163" cx="91.119" fill="#8CB5D2"/>
   <circle id="svg_158" r="2.046" cy="19.647" cx="87.459" fill="#8CB5D2"/>
   <path id="svg_159" d="m85.618988,15.095001c0.871002,0.115997 1.670013,-0.495003 1.786987,-1.369003c0.115021,-0.872002 -0.497986,-1.671997 -1.370972,-1.785995c-0.869019,-0.115005 -1.670013,0.494995 -1.787018,1.367996c-0.112976,0.873001 0.5,1.672005 1.371002,1.787003z" fill="#8CB5D2"/>
   <circle id="svg_160" r="4.098" cy="70.91" cx="51.846" fill="#8CB5D2"/>
   <circle id="svg_161" r="3.688" cy="63.641" cx="43.662" fill="#8CB5D2"/>
   <circle id="svg_162" r="3.318" cy="56.808" cx="35.871" fill="#8CB5D2"/>
   <circle id="svg_163" r="2.986" cy="48.312" cx="32.748" fill="#8CB5D2"/>
   <circle id="svg_164" r="2.688" cy="39.892" cx="34.479" fill="#8CB5D2"/>
   <circle id="svg_165" r="2.419" cy="31.875" cx="34.817" fill="#8CB5D2"/>
   <circle id="svg_166" r="2.177" cy="25.207" cx="31.95" fill="#8CB5D2"/>
   <circle id="svg_167" r="1.959" cy="20.702" cx="26.906" fill="#8CB5D2"/>
   <circle id="svg_168" r="1.764" cy="15.623" cx="23.717" fill="#8CB5D2"/>
   <circle id="svg_169" r="1.588" cy="10.112" cx="25.053" fill="#8CB5D2"/>
   <circle id="svg_170" r="1.286" cy="5.664" cx="27.442" fill="#8CB5D2"/>
   <circle id="svg_171" r="2.517" cy="38.68" cx="26.205" fill="#8CB5D2"/>
   <circle id="svg_172" r="2.265" cy="35.349" cx="18.859" fill="#8CB5D2"/>
   <circle id="svg_173" r="2.04" cy="28.838" cx="15.59" fill="#8CB5D2"/>
   <path id="svg_174" d="m12.839996,23.678001c0.653992,0.772995 1.812012,0.868996 2.588013,0.212997c0.77298,-0.655998 0.871002,-1.812996 0.212982,-2.587997c-0.651978,-0.772003 -1.811005,-0.869003 -2.585999,-0.213005c-0.773987,0.656006 -0.871002,1.814003 -0.214996,2.588005z" fill="#8CB5D2"/>
   <circle id="svg_175" r="1.763" cy="33.938" cx="12.372" fill="#8CB5D2"/>
   <circle id="svg_176" r="1.587" cy="30.584" cx="7.801" fill="#8CB5D2"/>
   <circle id="svg_177" r="1.429" cy="26.665" cx="4.616" fill="#8CB5D2"/>
   <circle id="svg_178" r="1.286" cy="8.192" cx="45.135" fill="#8CB5D2"/>
   <circle id="svg_179" r="1.429" cy="16.587" cx="14.469" fill="#8CB5D2"/>
   <circle id="svg_180" r="2.265" cy="57.22" cx="27.469" fill="#8CB5D2"/>
   <path id="svg_181" d="m20.378998,57.225998c1.127014,0.050003 2.080017,-0.822998 2.132996,-1.946999c0.050995,-1.125 -0.821991,-2.079002 -1.946991,-2.128998c-1.123016,-0.052002 -2.078003,0.819 -2.128998,1.945c-0.053009,1.123001 0.817993,2.079002 1.942993,2.130997z" fill="#8CB5D2"/>
   <circle id="svg_182" r="1.836" cy="51.859" cx="14.902" fill="#8CB5D2"/>
   <circle id="svg_183" r="1.429" cy="47.676" cx="10.729" fill="#8CB5D2"/>
   <path id="svg_184" d="m41.289001,28.032997c-1.03299,0.713005 -2.450989,0.452003 -3.161987,-0.578995c-0.71701,-1.033005 -0.455017,-2.448006 0.577972,-3.162003c1.031006,-0.711998 2.447021,-0.454002 3.162018,0.579002c0.710999,1.030998 0.454987,2.447998 -0.578003,3.161995z" fill="#8CB5D2"/>
   <path id="svg_185" d="m44.817993,21.331001c-0.928009,0.640999 -2.200989,0.407997 -2.843994,-0.521004c-0.643005,-0.931999 -0.410004,-2.204994 0.520996,-2.847c0.928009,-0.641998 2.200989,-0.409996 2.846008,0.521004c0.640991,0.931 0.411011,2.204002 -0.52301,2.847z" fill="#8CB5D2"/>
   <path id="svg_186" d="m45.496002,15.095001c-0.868988,0.115997 -1.670013,-0.495003 -1.785004,-1.369003c-0.11499,-0.872002 0.496002,-1.671997 1.371002,-1.785995c0.868988,-0.115005 1.670013,0.494995 1.785004,1.367996s-0.498016,1.672005 -1.371002,1.787003z" fill="#8CB5D2"/>
   <g id="svg_187">
    <path id="svg_188" d="m31.671997,117.464996l0,10.848999c0,8.188004 -7.824005,11.734009 -14.028992,11.734009l-11.68399,0c-1.199005,0 -1.512024,-0.572998 -1.512024,-1.513l0,-31.292999c0,-0.938004 0.312012,-1.512009 1.512024,-1.512009l11.68399,0c6.204987,0 14.028992,3.598999 14.028992,11.735001zm-8.190002,0.730011c0,-3.285995 -2.39801,-5.216003 -5.839996,-5.216003l-5.007996,0l0,19.819l5.007996,0c3.440979,0 5.839996,-1.877991 5.839996,-5.215988l0,-9.387009z" fill="#005A9B"/>
    <path id="svg_189" d="m63.688995,134.259003l0,4.276001c0,0.938995 -0.311981,1.513 -1.511993,1.513l-23.36499,0c-1.201019,0 -1.514008,-0.572998 -1.514008,-1.513l0,-31.292999c0,-0.938004 0.311981,-1.512009 1.514008,-1.512009l22.478973,0c1.199005,0 1.512024,0.572998 1.512024,1.512009l0,4.328995c0,0.938004 -0.312012,1.513 -1.512024,1.513l-15.751984,0l0,5.684998l13.979004,0c1.199005,0 1.511993,0.574005 1.511993,1.513l0,4.068008c0,0.937988 -0.312012,1.511993 -1.511993,1.511993l-13.979004,0l0,6.884995l16.639008,0c1.199005,-0.000992 1.510986,0.573013 1.510986,1.512009z" fill="#005A9B"/>
    <path id="svg_190" d="m95.343994,134.259003l0,4.276001c0,0.938995 -0.313995,1.513 -1.514008,1.513l-23.36499,0c-1.199005,0 -1.511993,-0.572998 -1.511993,-1.513l0,-31.292999c0,-0.938004 0.311981,-1.512009 1.511993,-1.512009l22.479004,0c1.198975,0 1.513977,0.572998 1.513977,1.512009l0,4.328995c0,0.938004 -0.313995,1.513 -1.513977,1.513l-15.75,0l0,5.684998l13.97699,0c1.199005,0 1.514008,0.574005 1.514008,1.513l0,4.068008c0,0.937988 -0.313995,1.511993 -1.514008,1.511993l-13.97699,0l0,6.884995l16.636993,0c1.197998,-0.000992 1.513,0.573013 1.513,1.512009z" fill="#005A9B"/>
    <path id="svg_191" d="m127.935974,140.048004l-6.153992,0c-1.252014,0 -1.879028,-0.470001 -2.606995,-1.564011l-5.632996,-8.396988c-0.471008,-0.625 -0.574036,-1.199005 -0.574036,-2.659012l0,-4.172989c0,-0.938004 0.312012,-1.513 1.512024,-1.513l1.042969,0c2.557007,0 4.955017,-1.772003 4.955017,-4.223999c0,-2.713013 -2.085999,-4.434006 -4.799011,-4.434006l-6.935974,0l0,25.451004c0,1.199997 -0.574005,1.513 -1.512024,1.513l-5.164001,0c-0.938995,0 -1.460999,-0.312012 -1.460999,-1.513l0,-31.240005c0,-0.938004 0.262024,-1.513 1.460999,-1.513l13.143005,0c5.686035,0 8.189026,1.147003 10.379028,3.337997c1.929993,1.878006 3.024963,4.850998 3.024963,8.188004c0,5.477005 -4.015991,9.283005 -7.25,10.378998l7.354004,10.69101c0.470032,0.730988 0.208069,1.669998 -0.781982,1.669998z" fill="#005A9B"/>
   </g>
  </g>
 </g>
</svg>